<svg xmlns="http://www.w3.org/2000/svg" width="152" height="35" fill="none"><path d="M0 34.612h34.2V.412H0v34.2Zm27.617-20.39h-7.226V6.994h7.226v7.226ZM6.581 6.994h7.231v13.808h13.805v7.226H6.581V6.995ZM56.471.412a17.1 17.1 0 1 0 17.1 17.1 17.12 17.12 0 0 0-17.1-17.1Zm0 27.617a10.517 10.517 0 1 1 10.517-10.517A10.533 10.533 0 0 1 56.471 28.03ZM134.763.412a17.099 17.099 0 0 0-12.094 29.191 17.103 17.103 0 0 0 18.636 3.708 17.102 17.102 0 0 0 10.556-15.799 17.12 17.12 0 0 0-17.098-17.1Zm0 27.617a10.52 10.52 0 0 1-9.718-6.491 10.517 10.517 0 1 1 20.234-4.026 10.53 10.53 0 0 1-3.086 7.432 10.527 10.527 0 0 1-7.43 3.085ZM95.616.412a17.1 17.1 0 1 0 17.1 17.1 17.121 17.121 0 0 0-17.1-17.1Zm0 27.617a10.518 10.518 0 1 1 9.984-13.808h-9.984v6.582h9.984a10.537 10.537 0 0 1-9.984 7.226Z" fill="#252525"/></svg>